PathFileType	4	(X/Y/Z)	OpenSim_Sub06_EMGStiffKnee_Accel.trc
DataRate	CameraRate	NumFrames	NumMarkers	Units	OrigDataRate	OrigDataStartFrame	OrigNumFrames
100	100	41	8	m	100	1359	5432
Frame#	Time	torso_imu_offset_imu	pelvis_imu_offset_imu	tibia_r_imu_offset_imu	femur_r_imu_offset_imu	tibia_l_imu_offset_imu	femur_l_imu_offset_imu	toes_r_imu_offset_imu	toes_l_imu_offset_imu
				X1	Y1	Z1	X2	Y2	Z2	X3	Y3	Z3	X4	Y4	Z4	X5	Y5	Z5	X6	Y6	Z6	X7	Y7	Z7	X8		Y8	Z8	

1359	13.58000000	8.41607400	-0.67603400	4.28498200	5.28938700	2.73997300	5.58693900	8.83192200	4.21528300	0.31219000	8.99599900	1.90725300	-0.51238600	11.03342900	-2.24207500	3.38863700	7.92900700	0.49657600	-0.23509500	5.17455400	-2.59614800	8.33774100	5.91351500	1.94081700	11.21013600
1360	13.59000000	8.76150000	-0.70502900	4.27989700	5.28539600	2.50413100	5.57480200	8.82338900	4.07451400	0.51562700	8.57346400	1.67007400	-0.43471800	9.92958300	-4.21683600	2.06375500	9.07927000	0.94090200	0.34690800	5.14725500	-2.58438200	8.14166800	6.71483500	2.74849300	10.90160600
1361	13.60000000	8.64887100	-0.68222900	4.47328200	5.78866100	2.32107700	5.69562300	9.31627900	3.88320800	0.69692400	8.42811500	1.23892000	-0.45228900	8.53986200	-6.11527700	1.48212000	10.31401400	1.51025600	1.21488200	5.10422600	-2.49523200	8.17658100	6.62164200	2.95143900	9.65527300
1362	13.61000000	8.41203100	-0.71964400	4.67711300	6.36726400	2.11178900	5.81514900	9.64147400	3.35658900	0.81605600	8.81519400	1.03988100	-0.29699000	7.86579300	-6.96918400	1.67472000	10.75713300	2.67451800	2.41657100	5.30570700	-2.10053400	8.25588800	7.83119900	3.77742700	10.14855500
1363	13.62000000	8.44139500	-0.84388300	4.71030800	6.86196000	2.02923900	5.84753700	9.57214700	2.77575400	1.08052900	9.39340000	0.82676400	-0.28086200	7.63853800	-6.73727800	2.54387400	10.65076200	3.63073600	3.30782100	5.27905400	-1.95085900	8.14905400	9.99721900	3.19576700	10.45337100
1364	13.63000000	8.47060400	-0.89401900	4.69751400	7.10581700	1.88298400	5.65631500	9.34705000	2.13330400	1.28998600	9.62975300	0.54332600	-0.34174300	7.49527100	-5.63919400	3.66016900	9.89663100	3.58418900	3.66995700	5.66596100	-1.60965800	8.10856100	10.81762100	2.91016400	10.51619200
1365	13.64000000	8.59054000	-0.93426000	4.72405500	7.30644200	1.79824900	5.52023000	9.20639900	1.60637900	1.32376200	9.55284400	0.37363000	-0.53973000	7.15776800	-4.10047600	4.61344800	9.20240400	2.59900200	3.55254400	5.44104400	-1.64282000	8.18025200	10.32316000	2.45060100	10.01782300
1366	13.65000000	8.68456600	-1.01582000	4.82560800	7.57211000	1.72009300	5.42601300	9.29778100	1.24907400	1.45376900	9.47858800	0.32410900	-0.58157900	6.60085800	-2.81426700	5.19542800	8.66717200	1.77227500	2.85527600	5.38195000	-1.67596200	8.31175300	10.14958600	2.20166400	9.88326500
1367	13.66000000	8.85556500	-1.03681400	5.01481100	7.77179900	1.80490900	5.43160400	9.57817300	1.08551300	1.50969800	9.39497700	0.12242600	-0.75488700	6.31435300	-2.31622200	5.15305400	8.42520500	1.67078100	1.80857100	5.21367300	-1.83919800	8.22009000	10.43415300	1.22340400	10.29968800
1368	13.67000000	8.95894700	-0.98773700	4.99610400	7.89967200	1.96179400	5.55285400	9.72864300	1.16269600	1.28858900	9.02472300	-0.44765900	-1.04812600	6.72434000	-2.55655400	4.39197500	8.37107800	1.64808800	0.81242100	5.16836300	-1.76438200	8.22569100	10.50457200	0.66547500	10.84704200
1369	13.68000000	8.92157900	-0.82133100	5.11925900	7.86162000	2.40799800	5.53037400	9.75034400	1.55384600	1.24580200	8.62677500	-1.14350200	-1.23734900	7.76182800	-3.25254400	3.24535300	8.49305700	1.27151300	0.22067800	5.33134700	-1.77383900	8.24833300	10.53673200	0.79328300	11.30900900
1370	13.69000000	8.88533500	-0.70385400	5.11724400	7.75623400	2.68783900	5.39324900	9.63515100	1.97067400	1.14030800	8.54301700	-2.11925900	-1.33146300	8.96777900	-4.22102000	2.32700600	8.75240300	1.21817600	-0.25233500	5.03850500	-1.92707000	8.32115400	10.50253900	1.02533300	11.26350900
1371	13.70000000	8.87647400	-0.61139400	5.21891500	7.66431800	2.80018600	5.20367300	9.49280400	2.35276200	1.08145800	8.64140600	-3.13617000	-1.35018600	9.97622000	-4.97188000	1.99641100	9.15324800	0.98163600	-0.53655900	5.16810500	-1.86827400	8.17296200	10.41487800	0.78672300	10.74145500
1372	13.71000000	9.06974400	-0.54610700	5.18032200	7.44745800	2.86694400	4.91597000	9.26470700	2.67665400	0.75777400	8.65004100	-3.94459200	-1.42657900	10.56367800	-5.39811700	2.31737300	9.28845000	0.94902600	-0.89279000	5.18329800	-2.04463200	8.26172200	10.36692700	0.03081600	9.73740100
1373	13.72000000	9.14108200	-0.44717300	5.07930700	7.34400700	2.81799900	4.63295700	9.28481200	2.72300300	0.40400600	8.57520800	-4.22154200	-1.58082800	10.62003600	-5.61525100	2.97155200	9.15545400	0.79812900	-1.13118800	5.64537300	-1.89006300	8.06881300	10.27882900	-0.64093100	8.57022900
1374	13.73000000	9.30676100	-0.19297100	5.25364000	7.28821400	2.76832500	4.50625000	9.56492200	2.62975600	0.14621800	8.54753000	-3.89939500	-1.62711300	10.33355600	-5.49906600	3.02594000	8.85938500	0.67975900	-1.26849900	5.36763000	-2.06448500	8.12547800	11.10651400	-0.77155700	8.07099900
1375	13.74000000	9.52922800	-0.04748400	5.40686000	7.47950400	2.62513800	4.43446400	9.97654200	2.27514900	0.34001800	8.64098700	-3.28081900	-1.39526800	9.72183000	-5.03572200	2.48917200	8.49480800	0.79599200	-1.03108800	5.36551400	-2.13559700	8.23582700	12.76411400	-1.20752000	7.87493800
1376	13.75000000	9.52774900	-0.05427200	5.43347800	7.78818400	2.66671500	4.46914400	10.40350500	1.87643800	0.56012800	8.87745200	-2.64562800	-1.08984500	9.05410300	-3.89319700	2.00215600	8.20849000	1.14128600	-0.49132000	5.37488900	-2.16914800	8.34406500	15.06598800	-1.91366600	7.68718500
1377	13.76000000	9.49429200	-0.09196100	5.48655900	8.16246900	2.59977700	4.58223100	10.58121700	1.51796200	0.68501300	9.11595000	-1.99804700	-0.77748000	8.76087100	-2.59840700	2.10296200	8.17945400	1.40049900	0.15039200	5.16660200	-2.13684700	8.42079100	16.25756900	-3.01406400	6.41432800
1378	13.77000000	9.52786000	-0.13800800	5.56754700	8.39567700	2.56049500	4.66100200	10.52059100	1.37601900	1.14062600	9.61278300	-1.44809200	-0.61550300	8.68154000	-1.71198800	2.53916900	8.20935600	1.80739400	0.66276900	5.30117900	-1.92893900	8.51622500	16.14364700	-3.59716800	5.21217400
1379	13.78000000	9.54882700	-0.28859700	5.60330300	8.47104600	2.45934300	4.70010500	10.44089900	1.37288800	1.47696000	9.95736800	-1.01019800	-0.53983800	8.53871200	-1.37046300	3.11770000	8.21884300	2.38008300	1.04735700	5.23524200	-1.89099100	8.63552100	16.36599400	-4.45402400	4.01925500
1380	13.79000000	9.58473600	-0.45833900	5.63906900	8.51121400	2.49992500	4.64338800	10.52566400	1.21669500	1.75472700	10.06089000	-0.78973900	-0.51153000	8.36876500	-1.52783200	3.63708100	8.15939100	3.19602100	1.33212900	4.79453100	-1.77755600	8.82052400	16.09148200	-5.85244400	2.57556300
1381	13.80000000	9.53967000	-0.60723600	5.70750500	8.48524600	2.45375500	4.49183400	10.52863400	1.10952700	1.98795900	10.07353300	-0.73841000	-0.53128000	8.02198400	-2.40727900	3.80957100	8.27154900	4.02312100	1.41284900	5.16606700	-1.46451700	8.72028100	14.93310800	-6.40850200	1.37873000
1382	13.81000000	9.44694300	-0.80626100	5.81355200	8.33667800	2.47092600	4.37003300	10.45057700	0.88584900	1.98365800	9.94353200	-1.04107300	-0.56509700	7.47014400	-3.62366600	3.48416600	8.44215600	4.66554600	0.95401000	5.08981200	-1.28359300	8.75868800	13.88770900	-6.52373700	0.71569100
1383	13.82000000	9.27905800	-0.86791800	5.85850400	8.32823300	2.51769700	4.09730700	10.34328300	0.75367900	1.99651400	9.82135900	-1.34838600	-0.48889600	7.11704500	-4.69089500	2.79096700	8.25909900	5.16958100	0.15426300	5.40518900	-1.29267100	8.65586300	13.25709300	-6.68498300	0.42222400
1384	13.83000000	9.10983200	-1.05008300	5.80051500	8.21831600	2.41011800	3.80751700	10.27069700	0.58549500	2.00640700	9.67639100	-1.65791100	-0.31828200	7.12663300	-5.52390600	2.08758100	7.58011500	5.35111300	-0.72699100	5.04817700	-0.98683200	8.71853600	13.72815300	-4.12807900	0.47088800
1385	13.84000000	8.93910000	-1.09109400	5.67532400	8.02332300	2.59952100	3.75196900	10.19261600	0.50666700	1.90169000	9.47912200	-1.92569300	-0.13959600	7.69733600	-5.65689700	1.47843400	6.65071600	5.21004100	-1.24370300	4.77701800	-1.46869500	8.69638200	10.13284100	-1.40312100	-0.13338600
1386	13.85000000	9.02197500	-1.03896300	5.60393300	7.94600000	2.69033400	3.83561100	10.30581100	0.50206600	1.83474500	9.41626000	-2.15336800	-0.01178200	9.09669900	-5.16759600	1.30592500	6.02020700	4.78329600	-1.53507900	4.89038400	-1.91376800	8.94624400	18.83412900	-16.66949100	-6.51088700
1387	13.86000000	9.23982100	-1.02618500	5.51369900	7.82902100	2.68588700	4.37677600	10.48539900	0.18628800	1.80785200	9.45615800	-2.29796900	-0.09426500	11.98973800	-3.47324200	1.32244900	6.18506100	3.83672100	-1.11482300	5.47115500	-1.76289800	8.74374000	27.46616400	-6.31496300	-0.68082400
1388	13.87000000	10.02570400	-0.76352000	5.27634900	8.09291000	2.72568100	6.30633000	10.71024700	-0.56052600	1.57127300	9.65752600	-2.31960500	-0.56406500	17.91611500	-2.12037600	3.79056600	8.56156500	2.35426300	0.25919600	5.31672100	-2.10009100	9.41186800	57.12103700	3.59765500	32.08573400
1389	13.88000000	12.82784500	-0.24435000	5.39336100	8.45544000	1.91102700	8.88588700	11.77621500	-1.52783100	1.12639000	10.37494500	-2.64002600	-0.92220000	21.95661300	-1.32133200	3.79124700	16.14854200	1.88865200	0.02530200	4.67203500	-3.44531500	10.02141900	-12.38888600	-6.42439000	-4.01612500
1390	13.89000000	15.25147100	-0.37139900	5.88905000	9.96681500	0.23664000	9.75092600	13.48992300	-2.70768200	2.45797800	11.92309500	-3.13201200	-1.25447700	19.15625300	-2.46415500	6.06196800	23.83713400	3.82446300	-1.85059000	5.23004000	-4.29265800	9.68507300	-8.33439900	8.02516900	18.90764900
1391	13.90000000	14.41640700	-0.26561900	6.74990300	13.55169200	-1.57869700	9.01338700	14.44297900	-4.12986900	3.91706800	12.50537200	-2.80861100	-1.71061000	16.22888400	-0.11308200	8.07363100	21.54398900	3.23812900	-2.48869600	5.07361200	-4.05908400	9.74165300	18.51867100	6.38604600	22.06600200
1392	13.91000000	12.84802500	0.63052600	7.28998300	16.72502100	-3.59562700	8.64035000	14.05750800	-4.81595100	4.35532900	11.73370800	-1.58782500	-1.45459700	7.63641500	0.58044200	8.92778600	15.18452600	-0.85986800	-2.36790600	5.05022500	-3.43184900	9.82592100	-3.24721400	-7.55838600	7.83643700
1393	13.92000000	12.74088800	1.96640000	6.87635700	15.87291600	-4.99109800	8.71084000	12.86760900	-4.43607700	5.28778300	11.67132100	-0.23570100	-0.60521400	2.23541200	-3.30033200	5.92066300	10.04860600	-4.46190100	-3.60800100	5.36971400	-3.53165900	10.08521500	9.15263000	2.29816200	11.64243300
1394	13.93000000	11.90152000	2.43183500	6.41922600	12.03439800	-2.24255700	7.72730200	11.69352500	-3.53034100	6.68709400	12.19685300	0.01003900	0.11444800	3.92826600	-6.90234000	-1.88376200	7.63479700	-3.70240200	-3.85236300	5.33692000	-3.81985400	10.20663500	5.69844900	1.97721100	11.99514200
1395	13.94000000	10.86625500	2.55535400	5.94743200	9.66119200	0.12511500	7.31899000	11.24412200	-2.14036800	7.48987800	12.52928000	-0.00157400	0.60950700	8.68544100	-7.52170400	-4.64249700	7.47192600	-1.23492000	-3.18085600	5.24438700	-2.32532600	10.36701900	5.14759100	0.21239800	10.76933900
1396	13.95000000	10.36314100	2.37425100	5.66624000	8.14388900	1.19699300	7.20048500	11.18488500	-0.28675400	7.29624600	12.24285100	-0.13061300	1.03979800	11.01491900	-8.78135500	-3.10115400	7.50259200	-0.85559100	-2.68303900	6.25107500	1.96317000	11.82059500	5.77772200	1.83640900	11.31619000
1397	13.96000000	9.70660100	2.18931100	5.60583200	6.91756100	1.68813100	6.51707200	10.81474100	1.55383700	5.73317800	11.47741900	-0.39443800	1.41361700	11.57041600	-8.48835200	-1.65999500	7.60680500	-1.26748000	-2.70733300	6.81947100	-0.42663600	10.91220600	4.98277600	2.36020700	11.14974900
1398	13.97000000	8.76783400	2.15226100	5.52276100	6.43409500	1.33913100	5.82591200	10.72772400	3.10247300	3.21357700	10.94576600	-0.74515300	1.50823700	10.66353900	-5.77937600	-0.50976500	8.46569800	-0.91090000	-3.17315400	6.99765700	-4.84002000	9.63046100	5.31395100	3.14192500	11.30380500
1399	13.98000000	8.35875700	1.78135900	5.31817900	6.36494000	0.75817500	5.45408200	10.94133000	4.22362400	0.34462500	10.79136000	-1.15691200	2.10833700	9.11295300	-4.32869600	0.79325000	9.43449100	-0.10434000	-3.52992000	8.53617200	-5.72115100	8.95248500	5.31399900	1.42836100	10.89304000
